<svg width="92" height="102" viewBox="0 0 92 102" fill="none" xmlns="http://www.w3.org/2000/svg">
<g clip-path="url(#clip0_899_2729)">
<path d="M46 101.4C43.92 101.4 41.85 100.87 40 99.8L6.69995 80.57C2.99995 78.43 0.699951 74.45 0.699951 70.18V31.72C0.699951 27.45 2.99995 23.46 6.69995 21.33L40 2.1C43.7 -0.040005 48.3 -0.040005 52 2.1L85.2999 21.33C88.9999 23.47 91.2999 27.45 91.2999 31.72V70.17C91.2999 74.44 88.9999 78.42 85.2999 80.56L52 99.79C50.15 100.86 48.07 101.39 46 101.39V101.4ZM46 4.5C44.62 4.5 43.23 4.86 42 5.57L8.69995 24.79C6.22995 26.21 4.69995 28.87 4.69995 31.72V70.17C4.69995 73.02 6.22995 75.67 8.69995 77.1L42 96.33C44.47 97.75 47.53 97.75 50 96.33L83.2999 77.1C85.7699 75.68 87.2999 73.02 87.2999 70.17V31.72C87.2999 28.87 85.7699 26.22 83.2999 24.79L50 5.57C48.77 4.86 47.38 4.5 46 4.5Z" fill="#A8A8AB"/>
<path d="M45.9999 59.27C53.8999 59.27 60.3299 52.84 60.3299 44.94C60.3299 37.76 48.9899 19.49 47.6999 17.43C47.3299 16.85 46.6899 16.49 46.0099 16.49C45.3299 16.49 44.6799 16.84 44.3199 17.43C43.0299 19.49 31.6899 37.77 31.6899 44.94C31.6899 52.84 38.1199 59.27 46.0199 59.27H45.9999ZM45.9999 22.33C49.9199 28.9 56.3299 40.55 56.3299 44.94C56.3299 50.63 51.6999 55.27 45.9999 55.27C40.2999 55.27 35.6699 50.64 35.6699 44.94C35.6699 40.55 42.0699 28.9 45.9999 22.33Z" fill="#A8A8AB"/>
<path d="M64.8999 76.17L61.0699 77.71C59.4099 78.38 57.5299 78.07 56.1699 76.9C53.6699 74.74 50.2199 74.17 47.1599 75.4L43.3299 76.94C41.6699 77.61 39.7899 77.3 38.4299 76.13C35.9299 73.97 32.4799 73.4 29.4199 74.63L25.5899 76.17C24.5699 76.58 24.0699 77.75 24.4799 78.77C24.8899 79.8 26.0599 80.29 27.0799 79.88L30.9099 78.34C32.5699 77.67 34.4499 77.98 35.8099 79.15C38.3099 81.31 41.7599 81.88 44.8199 80.65L48.6499 79.11C50.3099 78.44 52.1899 78.75 53.5499 79.92C55.1799 81.32 57.2099 82.06 59.2699 82.06C60.3699 82.06 61.4899 81.85 62.5599 81.42L66.3899 79.88C67.4099 79.47 67.9099 78.3 67.4999 77.28C67.0899 76.26 65.9199 75.76 64.8999 76.17V76.17Z" fill="#A8A8AB"/>
<path d="M27.0999 69.97L30.9299 68.43C32.5899 67.76 34.4699 68.07 35.8299 69.24C38.3299 71.4 41.7799 71.97 44.8399 70.74L48.6699 69.2C50.3299 68.53 52.2099 68.84 53.5699 70.01C55.1999 71.41 57.2299 72.15 59.2899 72.15C60.3899 72.15 61.5099 71.94 62.5799 71.51L66.4099 69.97C67.4299 69.56 67.9299 68.39 67.5199 67.37C67.1099 66.35 65.9399 65.85 64.9199 66.26L61.0899 67.8C59.4299 68.47 57.5499 68.16 56.1899 66.99C53.6899 64.83 50.2399 64.26 47.1799 65.49L43.3499 67.03C41.6899 67.7 39.8099 67.39 38.4499 66.21C35.9499 64.05 32.4999 63.48 29.4399 64.71L25.6099 66.25C24.5899 66.66 24.0899 67.83 24.4999 68.85C24.9099 69.88 26.0799 70.37 27.0999 69.96V69.97Z" fill="#A8A8AB"/>
</g>
<defs>
<clipPath id="clip0_899_2729">
<rect width="90.6" height="100.9" fill="white" transform="translate(0.699951 0.5)"/>
</clipPath>
</defs>
</svg>
